# xmcd
#
# Track frame offsets: 
#        150
#        19042
#        30162
#        49842
#        60882
#        76362
#        91650
#        104347
#        122132
#        136845
#        153082
#        167600
#        187037
#        197647
#        211817
#        227652
#        245952
#        256230
#        270765
#
# Disc length: 3794 seconds
#
# Revision: 0
# Processed by: cddbd v1.5.2PL0 Copyright (c) Steve Scherf et al.
# Submitted via: ExactAudioCopy v0.95b4
#
DISCID=e70ed013
DTITLE=Various Artist - Bell Witch the Movie
DYEAR=2003
DGENRE=Soundtrack
TTITLE0=01 Fly - Jimbo Whaley 
TTITLE1=02 Ole John Bell ( The Witches Curse ) - Valerie Smith
TTITLE2=03 The Dreams We Dream ( Bell Witch Love Song ) - Jimbo Whaley
TTITLE3=04 Dead And Gone - Jeff and Vida Band
TTITLE4=05 Mountain Way of Life - Jeanette Williams Band
TTITLE5=06 Foundatioin - Jimbo Whaley
TTITLE6=07 Shady Grove - Jeff and Vida Band
TTITLE7=08 I Remember - Jeanette Williams Band
TTITLE8=09 Jacob Spence - Valerie Smith and Liberty Pike Band
TTITLE9=10 Leave Well Enough Alone - Becky Buller
TTITLE10=11 Blind Beggar - Jeanette Williams Band
TTITLE11=12 Will the Circle Be Unbroken- Marshall Andy Smalls, Jimbo W
TTITLE11=haley, Valerie Smith
TTITLE12=13 Make New Choices - The Wells Family
TTITLE13=14 Wade in the Water - Valerie Smith and Liberty Pike Band
TTITLE14=15 Wayfaring Stranger - Jimbo Whaley
TTITLE15=16 The Sentence - Jimbo Whaley
TTITLE16=17 What You Gonna Do - Jeanette Williams Band
TTITLE17=18 Talk About Suffering - The Wells Family
TTITLE18=19 Amazing Grace - Becky Buller
EXTD=
EXTT0=
EXTT1=
EXTT2=
EXTT3=
EXTT4=
EXTT5=
EXTT6=
EXTT7=
EXTT8=
EXTT9=
EXTT10=
EXTT11=
EXTT12=
EXTT13=
EXTT14=
EXTT15=
EXTT16=
EXTT17=
EXTT18=
PLAYORDER=
